<svg xmlns="http://www.w3.org/2000/svg" version="1.1" xmlns:xlink="http://www.w3.org/1999/xlink" xmlns:svgjs="http://svgjs.dev/svgjs" width="1000" height="623" viewBox="0 0 1000 623"><g transform="matrix(1,0,0,1,-0.6060606060606233,0.2522267206477409)"><svg viewBox="0 0 396 247" data-background-color="#ffffff" preserveAspectRatio="xMidYMid meet" height="623" width="1000" xmlns="http://www.w3.org/2000/svg" xmlns:xlink="http://www.w3.org/1999/xlink"><g id="tight-bounds" transform="matrix(1,0,0,1,0.2400000000000091,-0.09999999999999432)"><svg viewBox="0 0 395.52 247.2" height="247.2" width="395.52"><g><svg></svg></g><g><svg viewBox="0 0 395.52 247.2" height="247.2" width="395.52"><g transform="matrix(1,0,0,1,75.54432000000001,103.62789259052924)"><svg viewBox="0 0 244.43135999999996 39.9442148189415" height="39.9442148189415" width="244.43135999999996"><g><svg viewBox="0 0 244.43135999999996 39.9442148189415" height="39.9442148189415" width="244.43135999999996"><g><svg viewBox="0 0 244.43136 39.944214818941504" height="39.9442148189415" width="244.43135999999996"><g><svg viewBox="0 0 244.43136 39.944214818941504" height="39.944214818941504" width="244.43136"><g id="textblocktransform"><svg viewBox="0 0 244.43136 39.944214818941504" height="39.944214818941504" width="244.43136" id="textblock"><g><svg viewBox="0 0 244.43136 39.944214818941504" height="39.944214818941504" width="244.43136"><g transform="matrix(1,0,0,1,0,0)"><svg width="244.43136" viewBox="3.700000047683716 -34.599998474121094 215.3800048828125 35.19999694824219" height="39.944214818941504" data-palette-color="#4a596d"><path d="M23.05-6.1L23.05 0 3.7 0 3.7-34 10.6-34 10.6-6.1 23.05-6.1ZM33.65-34L33.65-11.35Q33.65-5.4 39.7-5.4 45.75-5.4 45.75-11.35L45.75-11.35 45.75-34 52.65-34 52.65-11.5Q52.65-5.25 49.42-2.33 46.2 0.6 39.7 0.6 33.2 0.6 29.97-2.33 26.75-5.25 26.75-11.5L26.75-11.5 26.75-34 33.65-34ZM56.5-34L64.14-34 70.45-21.5 76.9-34 84.05-34 74.25-16.65 84.05 0 76.4 0 70.09-11.75 63.65 0 56.5 0 66.3-16.3 56.5-34ZM110.19 0L88.19 0 88.19-34 110.19-34 110.19-28 95.09-28 95.09-20.05 107.19-20.05 107.19-14.15 95.09-14.15 95.09-6 110.19-6 110.19 0ZM126.34-28.6L126.34-28.6Q120.89-28.6 120.89-25L120.89-25Q120.89-23.4 122.24-22.55 123.59-21.7 128.56-20.1 133.54-18.5 135.54-16.48 137.54-14.45 137.54-10.25L137.54-10.25Q137.54-4.9 134.29-2.15 131.04 0.6 125.79 0.6L125.79 0.6Q121.89 0.6 116.24-0.6L116.24-0.6 114.44-0.95 115.14-6.3Q121.84-5.4 125.39-5.4L125.39-5.4Q130.69-5.4 130.69-9.8L130.69-9.8Q130.69-11.4 129.47-12.3 128.24-13.2 124.59-14.25L124.59-14.25Q118.79-15.9 116.42-18.18 114.04-20.45 114.04-24.5L114.04-24.5Q114.04-29.6 117.14-32.1 120.24-34.6 125.64-34.6L125.64-34.6Q129.34-34.6 135.04-33.6L135.04-33.6 136.84-33.25 136.29-27.8Q129.24-28.6 126.34-28.6ZM149.14-27.9L140.04-27.9 140.04-34 165.04-34 165.04-27.9 156.04-27.9 156.04 0 149.14 0 149.14-27.9ZM171.59 0L164.69 0 172.34-34 185.44-34 193.09 0 186.19 0 184.84-6.15 172.94-6.15 171.59 0ZM180.09-28.3L177.69-28.3 174.24-12.15 183.54-12.15 180.09-28.3ZM208.68-13.75L208.68 0 201.78 0 201.78-13.75 191.28-34 198.93-34 205.18-20.45 211.43-34 219.08-34 208.68-13.75Z" opacity="1" transform="matrix(1,0,0,1,0,0)" fill="#4a596d" class="wordmark-text-0" data-fill-palette-color="primary" id="text-0"></path></svg></g></svg></g></svg></g></svg></g></svg></g></svg></g></svg></g><path d="M183.525 97.628L183.525 35.288 6.901 35.288 6.901 211.912 183.525 211.912 183.525 149.572 179.923 149.572 179.923 208.31 10.503 208.31 10.503 38.89 179.923 38.89 179.923 97.628Z" fill="#4a596d" stroke="transparent" data-fill-palette-color="primary"></path></svg></g><defs></defs></svg><rect width="395.52" height="247.2" fill="none" stroke="none" visibility="hidden"></rect></g></svg></g></svg>